<mxfile host="65bd71144e" pages="2">
    <diagram id="diagramid" name="Diagram">
        <mxGraphModel dx="1623" dy="1570" grid="1" gridSize="10" guides="1" tooltips="1" connect="1" arrows="1" fold="1" page="1" pageScale="1" pageWidth="850" pageHeight="1100" background="#ffffff" math="0" shadow="0">
            <root>
                <mxCell id="0"/>
                <mxCell id="1" parent="0"/>
                <mxCell id="2" value="ReservedCidrBlock" style="outlineConnect=0;fontColor=#B3B3B3;gradientColor=#F34482;gradientDirection=north;fillColor=#BC1356;strokeColor=#ffffff;dashed=0;verticalLabelPosition=bottom;verticalAlign=top;align=center;html=1;fontSize=12;fontStyle=0;aspect=fixed;shape=mxgraph.aws4.resourceIcon;resIcon=mxgraph.aws4.cloudformation;" parent="1" vertex="1">
                    <mxGeometry x="1000" y="750" width="50" height="50" as="geometry"/>
                </mxCell>
                <mxCell id="3" value="InternetGateway" style="outlineConnect=0;fontColor=#B3B3B3;gradientColor=#F78E04;gradientDirection=north;fillColor=#D05C17;strokeColor=#ffffff;dashed=0;verticalLabelPosition=bottom;verticalAlign=top;align=center;html=1;fontSize=12;fontStyle=0;aspect=fixed;shape=mxgraph.aws4.resourceIcon;resIcon=mxgraph.aws4.ec2;" parent="1" vertex="1">
                    <mxGeometry x="250" y="50" width="50" height="50" as="geometry"/>
                </mxCell>
                <mxCell id="4" value="GatewayToInternet" style="outlineConnect=0;fontColor=#B3B3B3;gradientColor=#F78E04;gradientDirection=north;fillColor=#D05C17;strokeColor=#ffffff;dashed=0;verticalLabelPosition=bottom;verticalAlign=top;align=center;html=1;fontSize=12;fontStyle=0;aspect=fixed;shape=mxgraph.aws4.resourceIcon;resIcon=mxgraph.aws4.ec2;" parent="1" vertex="1">
                    <mxGeometry y="12.5" width="50" height="50" as="geometry"/>
                </mxCell>
                <mxCell id="5" value="PublicRouteTable1Route1" style="outlineConnect=0;fontColor=#B3B3B3;gradientColor=#945DF2;gradientDirection=north;fillColor=#5A30B5;strokeColor=#ffffff;dashed=0;verticalLabelPosition=bottom;verticalAlign=top;align=center;html=1;fontSize=12;fontStyle=0;aspect=fixed;shape=mxgraph.aws4.resourceIcon;resIcon=mxgraph.aws4.route_table;" parent="1" vertex="1">
                    <mxGeometry y="325" width="50" height="50" as="geometry"/>
                </mxCell>
                <mxCell id="6" value="PublicRouteTable1" style="outlineConnect=0;fontColor=#B3B3B3;gradientColor=#945DF2;gradientDirection=north;fillColor=#5A30B5;strokeColor=#ffffff;dashed=0;verticalLabelPosition=bottom;verticalAlign=top;align=center;html=1;fontSize=12;fontStyle=0;aspect=fixed;shape=mxgraph.aws4.resourceIcon;resIcon=mxgraph.aws4.route_table;" parent="1" vertex="1">
                    <mxGeometry x="250" y="700" width="50" height="50" as="geometry"/>
                </mxCell>
                <mxCell id="7" value="AMILookup" style="outlineConnect=0;fontColor=#B3B3B3;gradientColor=#F34482;gradientDirection=north;fillColor=#BC1356;strokeColor=#ffffff;dashed=0;verticalLabelPosition=bottom;verticalAlign=top;align=center;html=1;fontSize=12;fontStyle=0;aspect=fixed;shape=mxgraph.aws4.resourceIcon;resIcon=mxgraph.aws4.cloudformation;" parent="1" vertex="1">
                    <mxGeometry x="500" y="575" width="50" height="50" as="geometry"/>
                </mxCell>
                <mxCell id="8" value="BastionSG" style="outlineConnect=0;fontColor=#B3B3B3;gradientColor=#F78E04;gradientDirection=north;fillColor=#D05C17;strokeColor=#ffffff;dashed=0;verticalLabelPosition=bottom;verticalAlign=top;align=center;html=1;fontSize=12;fontStyle=0;aspect=fixed;shape=mxgraph.aws4.resourceIcon;resIcon=mxgraph.aws4.ec2;" parent="1" vertex="1">
                    <mxGeometry x="500" y="275" width="50" height="50" as="geometry"/>
                </mxCell>
                <mxCell id="9" value="BastionSGIngress2" style="outlineConnect=0;fontColor=#B3B3B3;gradientColor=#F78E04;gradientDirection=north;fillColor=#D05C17;strokeColor=#ffffff;dashed=0;verticalLabelPosition=bottom;verticalAlign=top;align=center;html=1;fontSize=12;fontStyle=0;aspect=fixed;shape=mxgraph.aws4.resourceIcon;resIcon=mxgraph.aws4.ec2;" parent="1" vertex="1">
                    <mxGeometry x="250" y="150" width="50" height="50" as="geometry"/>
                </mxCell>
                <mxCell id="10" value="BastionSGIngress3" style="outlineConnect=0;fontColor=#B3B3B3;gradientColor=#F78E04;gradientDirection=north;fillColor=#D05C17;strokeColor=#ffffff;dashed=0;verticalLabelPosition=bottom;verticalAlign=top;align=center;html=1;fontSize=12;fontStyle=0;aspect=fixed;shape=mxgraph.aws4.resourceIcon;resIcon=mxgraph.aws4.ec2;" parent="1" vertex="1">
                    <mxGeometry x="250" y="250" width="50" height="50" as="geometry"/>
                </mxCell>
                <mxCell id="11" value="BastionSGIngress4" style="outlineConnect=0;fontColor=#B3B3B3;gradientColor=#F78E04;gradientDirection=north;fillColor=#D05C17;strokeColor=#ffffff;dashed=0;verticalLabelPosition=bottom;verticalAlign=top;align=center;html=1;fontSize=12;fontStyle=0;aspect=fixed;shape=mxgraph.aws4.resourceIcon;resIcon=mxgraph.aws4.ec2;" parent="1" vertex="1">
                    <mxGeometry x="250" y="350" width="50" height="50" as="geometry"/>
                </mxCell>
                <mxCell id="12" value="BastionInstanceAZ1" style="outlineConnect=0;fontColor=#B3B3B3;gradientColor=#F78E04;gradientDirection=north;fillColor=#D05C17;strokeColor=#ffffff;dashed=0;verticalLabelPosition=bottom;verticalAlign=top;align=center;html=1;fontSize=12;fontStyle=0;aspect=fixed;shape=mxgraph.aws4.resourceIcon;resIcon=mxgraph.aws4.ec2;" parent="1" vertex="1">
                    <mxGeometry x="250" y="450" width="50" height="50" as="geometry"/>
                </mxCell>
                <mxCell id="13" value="BastionAZ1EIP" style="outlineConnect=0;fontColor=#B3B3B3;gradientColor=#945DF2;gradientDirection=north;fillColor=#5A30B5;strokeColor=#ffffff;dashed=0;verticalLabelPosition=bottom;verticalAlign=top;align=center;html=1;fontSize=12;fontStyle=0;aspect=fixed;shape=mxgraph.aws4.resourceIcon;resIcon=mxgraph.aws4.elastic_ip_address;" parent="1" vertex="1">
                    <mxGeometry y="425" width="50" height="50" as="geometry"/>
                </mxCell>
                <mxCell id="14" value="PublicSubnet1Nat" style="outlineConnect=0;fontColor=#B3B3B3;gradientColor=#945DF2;gradientDirection=north;fillColor=#5A30B5;strokeColor=#ffffff;dashed=0;verticalLabelPosition=bottom;verticalAlign=top;align=center;html=1;fontSize=12;fontStyle=0;aspect=fixed;shape=mxgraph.aws4.resourceIcon;resIcon=mxgraph.aws4.nat_gateway;" parent="1" vertex="1">
                    <mxGeometry x="250" y="550" width="50" height="50" as="geometry"/>
                </mxCell>
                <mxCell id="15" value="PublicSubnet1NatEip" style="outlineConnect=0;fontColor=#B3B3B3;gradientColor=#945DF2;gradientDirection=north;fillColor=#5A30B5;strokeColor=#ffffff;dashed=0;verticalLabelPosition=bottom;verticalAlign=top;align=center;html=1;fontSize=12;fontStyle=0;aspect=fixed;shape=mxgraph.aws4.resourceIcon;resIcon=mxgraph.aws4.elastic_ip_address;" parent="1" vertex="1">
                    <mxGeometry x="500" y="475" width="50" height="50" as="geometry"/>
                </mxCell>
                <mxCell id="16" value="PublicSubnet1NatPrivateRouteTable1" style="outlineConnect=0;fontColor=#B3B3B3;gradientColor=#945DF2;gradientDirection=north;fillColor=#5A30B5;strokeColor=#ffffff;dashed=0;verticalLabelPosition=bottom;verticalAlign=top;align=center;html=1;fontSize=12;fontStyle=0;aspect=fixed;shape=mxgraph.aws4.resourceIcon;resIcon=mxgraph.aws4.route_table;" parent="1" vertex="1">
                    <mxGeometry y="525" width="50" height="50" as="geometry"/>
                </mxCell>
                <mxCell id="17" value="PubSubnet1RTAssoc" style="outlineConnect=0;fontColor=#B3B3B3;gradientColor=#945DF2;gradientDirection=north;fillColor=#5A30B5;strokeColor=#ffffff;dashed=0;verticalLabelPosition=bottom;verticalAlign=top;align=center;html=1;fontSize=12;fontStyle=0;aspect=fixed;shape=mxgraph.aws4.resourceIcon;resIcon=mxgraph.aws4.route_table;" parent="1" vertex="1">
                    <mxGeometry y="625" width="50" height="50" as="geometry"/>
                </mxCell>
                <mxCell id="18" value="PublicSubnet1" style="outlineConnect=0;fontColor=#B3B3B3;gradientColor=#F78E04;gradientDirection=north;fillColor=#D05C17;strokeColor=#ffffff;dashed=0;verticalLabelPosition=bottom;verticalAlign=top;align=center;html=1;fontSize=12;fontStyle=0;aspect=fixed;shape=mxgraph.aws4.resourceIcon;resIcon=mxgraph.aws4.ec2;" parent="1" vertex="1">
                    <mxGeometry x="500" y="375" width="50" height="50" as="geometry"/>
                </mxCell>
                <mxCell id="19" value="PriSubnet1RTAssoc" style="outlineConnect=0;fontColor=#B3B3B3;gradientColor=#945DF2;gradientDirection=north;fillColor=#5A30B5;strokeColor=#ffffff;dashed=0;verticalLabelPosition=bottom;verticalAlign=top;align=center;html=1;fontSize=12;fontStyle=0;aspect=fixed;shape=mxgraph.aws4.resourceIcon;resIcon=mxgraph.aws4.route_table;" parent="1" vertex="1">
                    <mxGeometry y="725" width="50" height="50" as="geometry"/>
                </mxCell>
                <mxCell id="20" value="PrivateSubnet1" style="outlineConnect=0;fontColor=#B3B3B3;gradientColor=#F78E04;gradientDirection=north;fillColor=#D05C17;strokeColor=#ffffff;dashed=0;verticalLabelPosition=bottom;verticalAlign=top;align=center;html=1;fontSize=12;fontStyle=0;aspect=fixed;shape=mxgraph.aws4.resourceIcon;resIcon=mxgraph.aws4.ec2;" parent="1" vertex="1">
                    <mxGeometry x="250" y="1000" width="50" height="50" as="geometry"/>
                </mxCell>
                <mxCell id="21" value="PrivateRouteTable1" style="outlineConnect=0;fontColor=#B3B3B3;gradientColor=#945DF2;gradientDirection=north;fillColor=#5A30B5;strokeColor=#ffffff;dashed=0;verticalLabelPosition=bottom;verticalAlign=top;align=center;html=1;fontSize=12;fontStyle=0;aspect=fixed;shape=mxgraph.aws4.resourceIcon;resIcon=mxgraph.aws4.route_table;" parent="1" vertex="1">
                    <mxGeometry x="250" y="800" width="50" height="50" as="geometry"/>
                </mxCell>
                <mxCell id="22" value="BastionInstanceAZ2" style="outlineConnect=0;fontColor=#B3B3B3;gradientColor=#F78E04;gradientDirection=north;fillColor=#D05C17;strokeColor=#ffffff;dashed=0;verticalLabelPosition=bottom;verticalAlign=top;align=center;html=1;fontSize=12;fontStyle=0;aspect=fixed;shape=mxgraph.aws4.resourceIcon;resIcon=mxgraph.aws4.ec2;" parent="1" vertex="1">
                    <mxGeometry x="250" y="900" width="50" height="50" as="geometry"/>
                </mxCell>
                <mxCell id="23" value="BastionAZ2EIP" style="outlineConnect=0;fontColor=#B3B3B3;gradientColor=#945DF2;gradientDirection=north;fillColor=#5A30B5;strokeColor=#ffffff;dashed=0;verticalLabelPosition=bottom;verticalAlign=top;align=center;html=1;fontSize=12;fontStyle=0;aspect=fixed;shape=mxgraph.aws4.resourceIcon;resIcon=mxgraph.aws4.elastic_ip_address;" parent="1" vertex="1">
                    <mxGeometry y="825" width="50" height="50" as="geometry"/>
                </mxCell>
                <mxCell id="24" value="PublicSubnet2Nat" style="outlineConnect=0;fontColor=#B3B3B3;gradientColor=#945DF2;gradientDirection=north;fillColor=#5A30B5;strokeColor=#ffffff;dashed=0;verticalLabelPosition=bottom;verticalAlign=top;align=center;html=1;fontSize=12;fontStyle=0;aspect=fixed;shape=mxgraph.aws4.resourceIcon;resIcon=mxgraph.aws4.nat_gateway;" parent="1" vertex="1">
                    <mxGeometry x="250" y="1150" width="50" height="50" as="geometry"/>
                </mxCell>
                <mxCell id="25" value="PublicSubnet2NatEip" style="outlineConnect=0;fontColor=#B3B3B3;gradientColor=#945DF2;gradientDirection=north;fillColor=#5A30B5;strokeColor=#ffffff;dashed=0;verticalLabelPosition=bottom;verticalAlign=top;align=center;html=1;fontSize=12;fontStyle=0;aspect=fixed;shape=mxgraph.aws4.resourceIcon;resIcon=mxgraph.aws4.elastic_ip_address;" parent="1" vertex="1">
                    <mxGeometry x="500" y="975" width="50" height="50" as="geometry"/>
                </mxCell>
                <mxCell id="26" value="PublicSubnet2NatPrivateRouteTable2" style="outlineConnect=0;fontColor=#B3B3B3;gradientColor=#945DF2;gradientDirection=north;fillColor=#5A30B5;strokeColor=#ffffff;dashed=0;verticalLabelPosition=bottom;verticalAlign=top;align=center;html=1;fontSize=12;fontStyle=0;aspect=fixed;shape=mxgraph.aws4.resourceIcon;resIcon=mxgraph.aws4.route_table;" parent="1" vertex="1">
                    <mxGeometry y="1025" width="50" height="50" as="geometry"/>
                </mxCell>
                <mxCell id="27" value="PubSubnet2RTAssoc" style="outlineConnect=0;fontColor=#B3B3B3;gradientColor=#945DF2;gradientDirection=north;fillColor=#5A30B5;strokeColor=#ffffff;dashed=0;verticalLabelPosition=bottom;verticalAlign=top;align=center;html=1;fontSize=12;fontStyle=0;aspect=fixed;shape=mxgraph.aws4.resourceIcon;resIcon=mxgraph.aws4.route_table;" parent="1" vertex="1">
                    <mxGeometry y="925" width="50" height="50" as="geometry"/>
                </mxCell>
                <mxCell id="28" value="PublicSubnet2" style="outlineConnect=0;fontColor=#B3B3B3;gradientColor=#F78E04;gradientDirection=north;fillColor=#D05C17;strokeColor=#ffffff;dashed=0;verticalLabelPosition=bottom;verticalAlign=top;align=center;html=1;fontSize=12;fontStyle=0;aspect=fixed;shape=mxgraph.aws4.resourceIcon;resIcon=mxgraph.aws4.ec2;" parent="1" vertex="1">
                    <mxGeometry x="500" y="875" width="50" height="50" as="geometry"/>
                </mxCell>
                <mxCell id="29" value="PriSubnet2RTAssoc" style="outlineConnect=0;fontColor=#B3B3B3;gradientColor=#945DF2;gradientDirection=north;fillColor=#5A30B5;strokeColor=#ffffff;dashed=0;verticalLabelPosition=bottom;verticalAlign=top;align=center;html=1;fontSize=12;fontStyle=0;aspect=fixed;shape=mxgraph.aws4.resourceIcon;resIcon=mxgraph.aws4.route_table;" parent="1" vertex="1">
                    <mxGeometry y="1300" width="50" height="50" as="geometry"/>
                </mxCell>
                <mxCell id="30" value="PrivateSubnet2" style="outlineConnect=0;fontColor=#B3B3B3;gradientColor=#F78E04;gradientDirection=north;fillColor=#D05C17;strokeColor=#ffffff;dashed=0;verticalLabelPosition=bottom;verticalAlign=top;align=center;html=1;fontSize=12;fontStyle=0;aspect=fixed;shape=mxgraph.aws4.resourceIcon;resIcon=mxgraph.aws4.ec2;" parent="1" vertex="1">
                    <mxGeometry x="250" y="1350" width="50" height="50" as="geometry"/>
                </mxCell>
                <mxCell id="31" value="PrivateRouteTable2" style="outlineConnect=0;fontColor=#B3B3B3;gradientColor=#945DF2;gradientDirection=north;fillColor=#5A30B5;strokeColor=#ffffff;dashed=0;verticalLabelPosition=bottom;verticalAlign=top;align=center;html=1;fontSize=12;fontStyle=0;aspect=fixed;shape=mxgraph.aws4.resourceIcon;resIcon=mxgraph.aws4.route_table;" parent="1" vertex="1">
                    <mxGeometry x="250" y="1250" width="50" height="50" as="geometry"/>
                </mxCell>
                <mxCell id="32" value="VPC" style="outlineConnect=0;fontColor=#B3B3B3;gradientColor=#945DF2;gradientDirection=north;fillColor=#5A30B5;strokeColor=#ffffff;dashed=0;verticalLabelPosition=bottom;verticalAlign=top;align=center;html=1;fontSize=12;fontStyle=0;aspect=fixed;shape=mxgraph.aws4.resourceIcon;resIcon=mxgraph.aws4.vpc;" parent="1" vertex="1">
                    <mxGeometry x="750" y="675" width="50" height="50" as="geometry"/>
                </mxCell>
                <mxCell id="33" value="lambda  &#10;findcurrentami" style="outlineConnect=0;fontColor=#B3B3B3;gradientColor=#aaaaaa;gradientDirection=north;fillColor=#aaaaaa;strokeColor=#ffffff;dashed=0;verticalLabelPosition=bottom;verticalAlign=top;align=center;html=1;fontSize=12;fontStyle=0;aspect=fixed;shape=mxgraph.aws4.resourceIcon;resIcon=mxgraph.aws4.lambda;" parent="1" vertex="1">
                    <mxGeometry x="750" y="575" width="50" height="50" as="geometry"/>
                </mxCell>
                <mxCell id="InternetGateway|GatewayToInternet" value="InternetGatewayId" style="edgeStyle=orthogonalEdgeStyle;rounded=1;orthogonalLoop=1;jettySize=auto;html=1;labelBackgroundColor=none;fontColor=#EA6B66;noEdgeStyle=1;orthogonal=1;" parent="1" source="4" target="3" edge="1">
                    <mxGeometry relative="1" as="geometry">
                        <Array as="points">
                            <mxPoint x="62" y="47.5"/>
                            <mxPoint x="238" y="65"/>
                        </Array>
                    </mxGeometry>
                </mxCell>
                <mxCell id="VPC|GatewayToInternet" value="VpcId" style="edgeStyle=orthogonalEdgeStyle;rounded=1;orthogonalLoop=1;jettySize=auto;html=1;labelBackgroundColor=none;fontColor=#EA6B66;noEdgeStyle=1;orthogonal=1;" parent="1" source="4" target="32" edge="1">
                    <mxGeometry relative="1" as="geometry">
                        <Array as="points">
                            <mxPoint x="62" y="27.5"/>
                            <mxPoint x="150"/>
                            <mxPoint x="400"/>
                            <mxPoint x="400"/>
                            <mxPoint x="650"/>
                            <mxPoint x="738" y="677.7777777777778"/>
                        </Array>
                    </mxGeometry>
                </mxCell>
                <mxCell id="PublicRouteTable1|PublicRouteTable1Route1" value="RouteTableId" style="edgeStyle=orthogonalEdgeStyle;rounded=1;orthogonalLoop=1;jettySize=auto;html=1;labelBackgroundColor=none;fontColor=#EA6B66;noEdgeStyle=1;orthogonal=1;" parent="1" source="5" target="6" edge="1">
                    <mxGeometry relative="1" as="geometry">
                        <Array as="points">
                            <mxPoint x="62" y="360"/>
                            <mxPoint x="238" y="711.6666666666666"/>
                        </Array>
                    </mxGeometry>
                </mxCell>
                <mxCell id="InternetGateway|PublicRouteTable1Route1" value="GatewayId" style="edgeStyle=orthogonalEdgeStyle;rounded=1;orthogonalLoop=1;jettySize=auto;html=1;labelBackgroundColor=none;fontColor=#EA6B66;noEdgeStyle=1;orthogonal=1;" parent="1" source="5" target="3" edge="1">
                    <mxGeometry relative="1" as="geometry">
                        <Array as="points">
                            <mxPoint x="62" y="340"/>
                            <mxPoint x="238" y="85"/>
                        </Array>
                    </mxGeometry>
                </mxCell>
                <mxCell id="VPC|PublicRouteTable1" value="VpcId" style="edgeStyle=orthogonalEdgeStyle;rounded=1;orthogonalLoop=1;jettySize=auto;html=1;labelBackgroundColor=none;fontColor=#EA6B66;noEdgeStyle=1;orthogonal=1;" parent="1" source="6" target="32" edge="1">
                    <mxGeometry relative="1" as="geometry">
                        <Array as="points">
                            <mxPoint x="312" y="725"/>
                            <mxPoint x="400" y="675"/>
                            <mxPoint x="650" y="675"/>
                            <mxPoint x="732" y="694.4444444444445"/>
                        </Array>
                    </mxGeometry>
                </mxCell>
                <mxCell id="lambda  &#10;findcurrentami|AMILookup" value="ServiceToken" style="edgeStyle=orthogonalEdgeStyle;rounded=1;orthogonalLoop=1;jettySize=auto;html=1;labelBackgroundColor=none;fontColor=#EA6B66;noEdgeStyle=1;orthogonal=1;" parent="1" source="7" target="33" edge="1">
                    <mxGeometry relative="1" as="geometry">
                        <Array as="points">
                            <mxPoint x="562" y="600"/>
                            <mxPoint x="738" y="600"/>
                        </Array>
                    </mxGeometry>
                </mxCell>
                <mxCell id="VPC|BastionSG" value="VpcId" style="edgeStyle=orthogonalEdgeStyle;rounded=1;orthogonalLoop=1;jettySize=auto;html=1;labelBackgroundColor=none;fontColor=#EA6B66;noEdgeStyle=1;orthogonal=1;" parent="1" source="8" target="32" edge="1">
                    <mxGeometry relative="1" as="geometry">
                        <Array as="points">
                            <mxPoint x="562" y="300"/>
                            <mxPoint x="736" y="683.3333333333334"/>
                        </Array>
                    </mxGeometry>
                </mxCell>
                <mxCell id="BastionSG|BastionSGIngress2" value="GroupId" style="edgeStyle=orthogonalEdgeStyle;rounded=1;orthogonalLoop=1;jettySize=auto;html=1;labelBackgroundColor=none;fontColor=#EA6B66;noEdgeStyle=1;orthogonal=1;" parent="1" source="9" target="8" edge="1">
                    <mxGeometry relative="1" as="geometry">
                        <Array as="points">
                            <mxPoint x="312" y="175"/>
                            <mxPoint x="488" y="284"/>
                        </Array>
                    </mxGeometry>
                </mxCell>
                <mxCell id="BastionSG|BastionSGIngress3" value="GroupId" style="edgeStyle=orthogonalEdgeStyle;rounded=1;orthogonalLoop=1;jettySize=auto;html=1;labelBackgroundColor=none;fontColor=#EA6B66;noEdgeStyle=1;orthogonal=1;" parent="1" source="10" target="8" edge="1">
                    <mxGeometry relative="1" as="geometry">
                        <Array as="points">
                            <mxPoint x="312" y="275"/>
                            <mxPoint x="486" y="292"/>
                        </Array>
                    </mxGeometry>
                </mxCell>
                <mxCell id="BastionSG|BastionSGIngress4" value="GroupId" style="edgeStyle=orthogonalEdgeStyle;rounded=1;orthogonalLoop=1;jettySize=auto;html=1;labelBackgroundColor=none;fontColor=#EA6B66;noEdgeStyle=1;orthogonal=1;" parent="1" source="11" target="8" edge="1">
                    <mxGeometry relative="1" as="geometry">
                        <Array as="points">
                            <mxPoint x="312" y="375"/>
                            <mxPoint x="484" y="300"/>
                        </Array>
                    </mxGeometry>
                </mxCell>
                <mxCell id="BastionSG|BastionInstanceAZ1" value="SecurityGroupIds" style="edgeStyle=orthogonalEdgeStyle;rounded=1;orthogonalLoop=1;jettySize=auto;html=1;labelBackgroundColor=none;fontColor=#EA6B66;noEdgeStyle=1;orthogonal=1;" parent="1" source="12" target="8" edge="1">
                    <mxGeometry relative="1" as="geometry">
                        <Array as="points">
                            <mxPoint x="312" y="461.6666666666667"/>
                            <mxPoint x="486" y="308"/>
                        </Array>
                    </mxGeometry>
                </mxCell>
                <mxCell id="PublicSubnet1|BastionInstanceAZ1" value="SubnetId" style="edgeStyle=orthogonalEdgeStyle;rounded=1;orthogonalLoop=1;jettySize=auto;html=1;labelBackgroundColor=none;fontColor=#EA6B66;noEdgeStyle=1;orthogonal=1;" parent="1" source="12" target="18" edge="1">
                    <mxGeometry relative="1" as="geometry">
                        <Array as="points">
                            <mxPoint x="314" y="475"/>
                            <mxPoint x="488" y="386.6666666666667"/>
                        </Array>
                    </mxGeometry>
                </mxCell>
                <mxCell id="AMILookup|BastionInstanceAZ1" value="ImageId" style="edgeStyle=orthogonalEdgeStyle;rounded=1;orthogonalLoop=1;jettySize=auto;html=1;labelBackgroundColor=none;fontColor=#EA6B66;noEdgeStyle=1;orthogonal=1;" parent="1" source="12" target="7" edge="1">
                    <mxGeometry relative="1" as="geometry">
                        <Array as="points">
                            <mxPoint x="312" y="488.3333333333333"/>
                            <mxPoint x="488" y="590"/>
                        </Array>
                    </mxGeometry>
                </mxCell>
                <mxCell id="BastionInstanceAZ1|BastionAZ1EIP" value="InstanceId" style="edgeStyle=orthogonalEdgeStyle;rounded=1;orthogonalLoop=1;jettySize=auto;html=1;labelBackgroundColor=none;fontColor=#EA6B66;noEdgeStyle=1;orthogonal=1;" parent="1" source="13" target="12" edge="1">
                    <mxGeometry relative="1" as="geometry">
                        <Array as="points">
                            <mxPoint x="62" y="450"/>
                            <mxPoint x="238" y="475"/>
                        </Array>
                    </mxGeometry>
                </mxCell>
                <mxCell id="PublicSubnet1|PublicSubnet1Nat" value="SubnetId" style="edgeStyle=orthogonalEdgeStyle;rounded=1;orthogonalLoop=1;jettySize=auto;html=1;labelBackgroundColor=none;fontColor=#EA6B66;noEdgeStyle=1;orthogonal=1;" parent="1" source="14" target="18" edge="1">
                    <mxGeometry relative="1" as="geometry">
                        <Array as="points">
                            <mxPoint x="312" y="565"/>
                            <mxPoint x="486" y="400"/>
                        </Array>
                    </mxGeometry>
                </mxCell>
                <mxCell id="PublicSubnet1NatEip|PublicSubnet1Nat" value="AllocationId" style="edgeStyle=orthogonalEdgeStyle;rounded=1;orthogonalLoop=1;jettySize=auto;html=1;labelBackgroundColor=none;fontColor=#EA6B66;noEdgeStyle=1;orthogonal=1;" parent="1" source="14" target="15" edge="1">
                    <mxGeometry relative="1" as="geometry">
                        <Array as="points">
                            <mxPoint x="312" y="585"/>
                            <mxPoint x="488" y="500"/>
                        </Array>
                    </mxGeometry>
                </mxCell>
                <mxCell id="PublicSubnet1Nat|PublicSubnet1NatPrivateRouteTable1" value="NatGatewayId" style="edgeStyle=orthogonalEdgeStyle;rounded=1;orthogonalLoop=1;jettySize=auto;html=1;labelBackgroundColor=none;fontColor=#EA6B66;noEdgeStyle=1;orthogonal=1;" parent="1" source="16" target="14" edge="1">
                    <mxGeometry relative="1" as="geometry">
                        <Array as="points">
                            <mxPoint x="62" y="540"/>
                            <mxPoint x="238" y="575"/>
                        </Array>
                    </mxGeometry>
                </mxCell>
                <mxCell id="PrivateRouteTable1|PublicSubnet1NatPrivateRouteTable1" value="RouteTableId" style="edgeStyle=orthogonalEdgeStyle;rounded=1;orthogonalLoop=1;jettySize=auto;html=1;labelBackgroundColor=none;fontColor=#EA6B66;noEdgeStyle=1;orthogonal=1;" parent="1" source="16" target="21" edge="1">
                    <mxGeometry relative="1" as="geometry">
                        <Array as="points">
                            <mxPoint x="62" y="560"/>
                            <mxPoint x="238" y="815"/>
                        </Array>
                    </mxGeometry>
                </mxCell>
                <mxCell id="PublicRouteTable1|PubSubnet1RTAssoc" value="RouteTableId" style="edgeStyle=orthogonalEdgeStyle;rounded=1;orthogonalLoop=1;jettySize=auto;html=1;labelBackgroundColor=none;fontColor=#EA6B66;noEdgeStyle=1;orthogonal=1;" parent="1" source="17" target="6" edge="1">
                    <mxGeometry relative="1" as="geometry">
                        <Array as="points">
                            <mxPoint x="62" y="660"/>
                            <mxPoint x="236" y="725"/>
                        </Array>
                    </mxGeometry>
                </mxCell>
                <mxCell id="PublicSubnet1|PubSubnet1RTAssoc" value="SubnetId" style="edgeStyle=orthogonalEdgeStyle;rounded=1;orthogonalLoop=1;jettySize=auto;html=1;labelBackgroundColor=none;fontColor=#EA6B66;noEdgeStyle=1;orthogonal=1;" parent="1" source="17" target="18" edge="1">
                    <mxGeometry relative="1" as="geometry">
                        <Array as="points">
                            <mxPoint x="62" y="640"/>
                            <mxPoint x="150" y="650"/>
                            <mxPoint x="400" y="650"/>
                            <mxPoint x="488" y="413.3333333333333"/>
                        </Array>
                    </mxGeometry>
                </mxCell>
                <mxCell id="VPC|PublicSubnet1" value="VpcId" style="edgeStyle=orthogonalEdgeStyle;rounded=1;orthogonalLoop=1;jettySize=auto;html=1;labelBackgroundColor=none;fontColor=#EA6B66;noEdgeStyle=1;orthogonal=1;" parent="1" source="18" target="32" edge="1">
                    <mxGeometry relative="1" as="geometry">
                        <Array as="points">
                            <mxPoint x="562" y="410"/>
                            <mxPoint x="734" y="688.8888888888889"/>
                        </Array>
                    </mxGeometry>
                </mxCell>
                <mxCell id="ReservedCidrBlock|PublicSubnet1" value="CidrBlock" style="edgeStyle=orthogonalEdgeStyle;rounded=1;orthogonalLoop=1;jettySize=auto;html=1;labelBackgroundColor=none;fontColor=#EA6B66;noEdgeStyle=1;orthogonal=1;" parent="1" source="18" target="2" edge="1">
                    <mxGeometry relative="1" as="geometry">
                        <Array as="points">
                            <mxPoint x="562" y="390"/>
                            <mxPoint x="650" y="525"/>
                            <mxPoint x="900" y="525"/>
                            <mxPoint x="988" y="759"/>
                        </Array>
                    </mxGeometry>
                </mxCell>
                <mxCell id="PrivateRouteTable1|PriSubnet1RTAssoc" value="RouteTableId" style="edgeStyle=orthogonalEdgeStyle;rounded=1;orthogonalLoop=1;jettySize=auto;html=1;labelBackgroundColor=none;fontColor=#EA6B66;noEdgeStyle=1;orthogonal=1;" parent="1" source="19" target="21" edge="1">
                    <mxGeometry relative="1" as="geometry">
                        <Array as="points">
                            <mxPoint x="62" y="740"/>
                            <mxPoint x="238" y="835"/>
                        </Array>
                    </mxGeometry>
                </mxCell>
                <mxCell id="PrivateSubnet1|PriSubnet1RTAssoc" value="SubnetId" style="edgeStyle=orthogonalEdgeStyle;rounded=1;orthogonalLoop=1;jettySize=auto;html=1;labelBackgroundColor=none;fontColor=#EA6B66;noEdgeStyle=1;orthogonal=1;" parent="1" source="19" target="20" edge="1">
                    <mxGeometry relative="1" as="geometry">
                        <Array as="points">
                            <mxPoint x="62" y="760"/>
                            <mxPoint x="238" y="1025"/>
                        </Array>
                    </mxGeometry>
                </mxCell>
                <mxCell id="VPC|PrivateSubnet1" value="VpcId" style="edgeStyle=orthogonalEdgeStyle;rounded=1;orthogonalLoop=1;jettySize=auto;html=1;labelBackgroundColor=none;fontColor=#EA6B66;noEdgeStyle=1;orthogonal=1;" parent="1" source="20" target="32" edge="1">
                    <mxGeometry relative="1" as="geometry">
                        <Array as="points">
                            <mxPoint x="312" y="1015"/>
                            <mxPoint x="400" y="775"/>
                            <mxPoint x="650" y="775"/>
                            <mxPoint x="732" y="705.5555555555555"/>
                        </Array>
                    </mxGeometry>
                </mxCell>
                <mxCell id="ReservedCidrBlock|PrivateSubnet1" value="CidrBlock" style="edgeStyle=orthogonalEdgeStyle;rounded=1;orthogonalLoop=1;jettySize=auto;html=1;labelBackgroundColor=none;fontColor=#EA6B66;noEdgeStyle=1;orthogonal=1;" parent="1" source="20" target="2" edge="1">
                    <mxGeometry relative="1" as="geometry">
                        <Array as="points">
                            <mxPoint x="312" y="1035"/>
                            <mxPoint x="400" y="825"/>
                            <mxPoint x="650" y="825"/>
                            <mxPoint x="650" y="775"/>
                            <mxPoint x="900" y="775"/>
                            <mxPoint x="984" y="775"/>
                        </Array>
                    </mxGeometry>
                </mxCell>
                <mxCell id="VPC|PrivateRouteTable1" value="VpcId" style="edgeStyle=orthogonalEdgeStyle;rounded=1;orthogonalLoop=1;jettySize=auto;html=1;labelBackgroundColor=none;fontColor=#EA6B66;noEdgeStyle=1;orthogonal=1;" parent="1" source="21" target="32" edge="1">
                    <mxGeometry relative="1" as="geometry">
                        <Array as="points">
                            <mxPoint x="312" y="825"/>
                            <mxPoint x="400" y="725"/>
                            <mxPoint x="650" y="725"/>
                            <mxPoint x="730" y="700"/>
                        </Array>
                    </mxGeometry>
                </mxCell>
                <mxCell id="BastionSG|BastionInstanceAZ2" value="SecurityGroupIds" style="edgeStyle=orthogonalEdgeStyle;rounded=1;orthogonalLoop=1;jettySize=auto;html=1;labelBackgroundColor=none;fontColor=#EA6B66;noEdgeStyle=1;orthogonal=1;" parent="1" source="22" target="8" edge="1">
                    <mxGeometry relative="1" as="geometry">
                        <Array as="points">
                            <mxPoint x="312" y="911.6666666666666"/>
                            <mxPoint x="488" y="316"/>
                        </Array>
                    </mxGeometry>
                </mxCell>
                <mxCell id="PublicSubnet2|BastionInstanceAZ2" value="SubnetId" style="edgeStyle=orthogonalEdgeStyle;rounded=1;orthogonalLoop=1;jettySize=auto;html=1;labelBackgroundColor=none;fontColor=#EA6B66;noEdgeStyle=1;orthogonal=1;" parent="1" source="22" target="28" edge="1">
                    <mxGeometry relative="1" as="geometry">
                        <Array as="points">
                            <mxPoint x="312" y="938.3333333333334"/>
                            <mxPoint x="488" y="886.6666666666666"/>
                        </Array>
                    </mxGeometry>
                </mxCell>
                <mxCell id="AMILookup|BastionInstanceAZ2" value="ImageId" style="edgeStyle=orthogonalEdgeStyle;rounded=1;orthogonalLoop=1;jettySize=auto;html=1;labelBackgroundColor=none;fontColor=#EA6B66;noEdgeStyle=1;orthogonal=1;" parent="1" source="22" target="7" edge="1">
                    <mxGeometry relative="1" as="geometry">
                        <Array as="points">
                            <mxPoint x="314" y="925"/>
                            <mxPoint x="488" y="610"/>
                        </Array>
                    </mxGeometry>
                </mxCell>
                <mxCell id="BastionInstanceAZ2|BastionAZ2EIP" value="InstanceId" style="edgeStyle=orthogonalEdgeStyle;rounded=1;orthogonalLoop=1;jettySize=auto;html=1;labelBackgroundColor=none;fontColor=#EA6B66;noEdgeStyle=1;orthogonal=1;" parent="1" source="23" target="22" edge="1">
                    <mxGeometry relative="1" as="geometry">
                        <Array as="points">
                            <mxPoint x="62" y="850"/>
                            <mxPoint x="238" y="925"/>
                        </Array>
                    </mxGeometry>
                </mxCell>
                <mxCell id="PublicSubnet2|PublicSubnet2Nat" value="SubnetId" style="edgeStyle=orthogonalEdgeStyle;rounded=1;orthogonalLoop=1;jettySize=auto;html=1;labelBackgroundColor=none;fontColor=#EA6B66;noEdgeStyle=1;orthogonal=1;" parent="1" source="24" target="28" edge="1">
                    <mxGeometry relative="1" as="geometry">
                        <Array as="points">
                            <mxPoint x="312" y="1165"/>
                            <mxPoint x="488" y="913.3333333333334"/>
                        </Array>
                    </mxGeometry>
                </mxCell>
                <mxCell id="PublicSubnet2NatEip|PublicSubnet2Nat" value="AllocationId" style="edgeStyle=orthogonalEdgeStyle;rounded=1;orthogonalLoop=1;jettySize=auto;html=1;labelBackgroundColor=none;fontColor=#EA6B66;noEdgeStyle=1;orthogonal=1;" parent="1" source="24" target="25" edge="1">
                    <mxGeometry relative="1" as="geometry">
                        <Array as="points">
                            <mxPoint x="312" y="1185"/>
                            <mxPoint x="488" y="1000"/>
                        </Array>
                    </mxGeometry>
                </mxCell>
                <mxCell id="PublicSubnet2Nat|PublicSubnet2NatPrivateRouteTable2" value="NatGatewayId" style="edgeStyle=orthogonalEdgeStyle;rounded=1;orthogonalLoop=1;jettySize=auto;html=1;labelBackgroundColor=none;fontColor=#EA6B66;noEdgeStyle=1;orthogonal=1;" parent="1" source="26" target="24" edge="1">
                    <mxGeometry relative="1" as="geometry">
                        <Array as="points">
                            <mxPoint x="62" y="1040"/>
                            <mxPoint x="238" y="1175"/>
                        </Array>
                    </mxGeometry>
                </mxCell>
                <mxCell id="PrivateRouteTable2|PublicSubnet2NatPrivateRouteTable2" value="RouteTableId" style="edgeStyle=orthogonalEdgeStyle;rounded=1;orthogonalLoop=1;jettySize=auto;html=1;labelBackgroundColor=none;fontColor=#EA6B66;noEdgeStyle=1;orthogonal=1;" parent="1" source="26" target="31" edge="1">
                    <mxGeometry relative="1" as="geometry">
                        <Array as="points">
                            <mxPoint x="62" y="1060"/>
                            <mxPoint x="238" y="1265"/>
                        </Array>
                    </mxGeometry>
                </mxCell>
                <mxCell id="PublicRouteTable1|PubSubnet2RTAssoc" value="RouteTableId" style="edgeStyle=orthogonalEdgeStyle;rounded=1;orthogonalLoop=1;jettySize=auto;html=1;labelBackgroundColor=none;fontColor=#EA6B66;noEdgeStyle=1;orthogonal=1;" parent="1" source="27" target="6" edge="1">
                    <mxGeometry relative="1" as="geometry">
                        <Array as="points">
                            <mxPoint x="62" y="940"/>
                            <mxPoint x="238" y="738.3333333333334"/>
                        </Array>
                    </mxGeometry>
                </mxCell>
                <mxCell id="PublicSubnet2|PubSubnet2RTAssoc" value="SubnetId" style="edgeStyle=orthogonalEdgeStyle;rounded=1;orthogonalLoop=1;jettySize=auto;html=1;labelBackgroundColor=none;fontColor=#EA6B66;noEdgeStyle=1;orthogonal=1;" parent="1" source="27" target="28" edge="1">
                    <mxGeometry relative="1" as="geometry">
                        <Array as="points">
                            <mxPoint x="62" y="960"/>
                            <mxPoint x="150" y="1100"/>
                            <mxPoint x="400" y="1100"/>
                            <mxPoint x="486" y="900"/>
                        </Array>
                    </mxGeometry>
                </mxCell>
                <mxCell id="VPC|PublicSubnet2" value="VpcId" style="edgeStyle=orthogonalEdgeStyle;rounded=1;orthogonalLoop=1;jettySize=auto;html=1;labelBackgroundColor=none;fontColor=#EA6B66;noEdgeStyle=1;orthogonal=1;" parent="1" source="28" target="32" edge="1">
                    <mxGeometry relative="1" as="geometry">
                        <Array as="points">
                            <mxPoint x="562" y="890"/>
                            <mxPoint x="734" y="711.1111111111111"/>
                        </Array>
                    </mxGeometry>
                </mxCell>
                <mxCell id="ReservedCidrBlock|PublicSubnet2" value="CidrBlock" style="edgeStyle=orthogonalEdgeStyle;rounded=1;orthogonalLoop=1;jettySize=auto;html=1;labelBackgroundColor=none;fontColor=#EA6B66;noEdgeStyle=1;orthogonal=1;" parent="1" source="28" target="2" edge="1">
                    <mxGeometry relative="1" as="geometry">
                        <Array as="points">
                            <mxPoint x="562" y="910"/>
                            <mxPoint x="650" y="825"/>
                            <mxPoint x="900" y="825"/>
                            <mxPoint x="986" y="783"/>
                        </Array>
                    </mxGeometry>
                </mxCell>
                <mxCell id="PrivateRouteTable2|PriSubnet2RTAssoc" value="RouteTableId" style="edgeStyle=orthogonalEdgeStyle;rounded=1;orthogonalLoop=1;jettySize=auto;html=1;labelBackgroundColor=none;fontColor=#EA6B66;noEdgeStyle=1;orthogonal=1;" parent="1" source="29" target="31" edge="1">
                    <mxGeometry relative="1" as="geometry">
                        <Array as="points">
                            <mxPoint x="62" y="1315"/>
                            <mxPoint x="238" y="1285"/>
                        </Array>
                    </mxGeometry>
                </mxCell>
                <mxCell id="PrivateSubnet2|PriSubnet2RTAssoc" value="SubnetId" style="edgeStyle=orthogonalEdgeStyle;rounded=1;orthogonalLoop=1;jettySize=auto;html=1;labelBackgroundColor=none;fontColor=#EA6B66;noEdgeStyle=1;orthogonal=1;" parent="1" source="29" target="30" edge="1">
                    <mxGeometry relative="1" as="geometry">
                        <Array as="points">
                            <mxPoint x="62" y="1335"/>
                            <mxPoint x="238" y="1375"/>
                        </Array>
                    </mxGeometry>
                </mxCell>
                <mxCell id="VPC|PrivateSubnet2" value="VpcId" style="edgeStyle=orthogonalEdgeStyle;rounded=1;orthogonalLoop=1;jettySize=auto;html=1;labelBackgroundColor=none;fontColor=#EA6B66;noEdgeStyle=1;orthogonal=1;" parent="1" source="30" target="32" edge="1">
                    <mxGeometry relative="1" as="geometry">
                        <Array as="points">
                            <mxPoint x="312" y="1365"/>
                            <mxPoint x="400" y="1125"/>
                            <mxPoint x="650" y="1125"/>
                            <mxPoint x="738" y="722.2222222222222"/>
                        </Array>
                    </mxGeometry>
                </mxCell>
                <mxCell id="ReservedCidrBlock|PrivateSubnet2" value="CidrBlock" style="edgeStyle=orthogonalEdgeStyle;rounded=1;orthogonalLoop=1;jettySize=auto;html=1;labelBackgroundColor=none;fontColor=#EA6B66;noEdgeStyle=1;orthogonal=1;" parent="1" source="30" target="2" edge="1">
                    <mxGeometry relative="1" as="geometry">
                        <Array as="points">
                            <mxPoint x="312" y="1385"/>
                            <mxPoint x="400" y="1175"/>
                            <mxPoint x="650" y="1175"/>
                            <mxPoint x="650" y="1175"/>
                            <mxPoint x="900" y="1175"/>
                            <mxPoint x="988" y="791"/>
                        </Array>
                    </mxGeometry>
                </mxCell>
                <mxCell id="VPC|PrivateRouteTable2" value="VpcId" style="edgeStyle=orthogonalEdgeStyle;rounded=1;orthogonalLoop=1;jettySize=auto;html=1;labelBackgroundColor=none;fontColor=#EA6B66;noEdgeStyle=1;orthogonal=1;" parent="1" source="31" target="32" edge="1">
                    <mxGeometry relative="1" as="geometry">
                        <Array as="points">
                            <mxPoint x="312" y="1275"/>
                            <mxPoint x="400" y="1075"/>
                            <mxPoint x="650" y="1075"/>
                            <mxPoint x="736" y="716.6666666666666"/>
                        </Array>
                    </mxGeometry>
                </mxCell>
                <mxCell id="ReservedCidrBlock|VPC" value="CidrBlock" style="edgeStyle=orthogonalEdgeStyle;rounded=1;orthogonalLoop=1;jettySize=auto;html=1;labelBackgroundColor=none;fontColor=#EA6B66;noEdgeStyle=1;orthogonal=1;" parent="1" source="32" target="2" edge="1">
                    <mxGeometry relative="1" as="geometry">
                        <Array as="points">
                            <mxPoint x="812" y="700"/>
                            <mxPoint x="986" y="767"/>
                        </Array>
                    </mxGeometry>
                </mxCell>
            </root>
        </mxGraphModel>
    </diagram>
</mxfile>